HIERARCHY
ROOT Hips
{
  OFFSET 46.3814 84.1815 -19.1624
  CHANNELS 6 Xposition Yposition Zposition Zrotation Xrotation Yrotation
  JOINT spine
  {
    OFFSET 0 6.24479 0.359107
    CHANNELS 3 Zrotation Xrotation Yrotation
    JOINT spine1
    {
      OFFSET 0 9.06941 0
      CHANNELS 3 Zrotation Xrotation Yrotation
      JOINT spine2
      {
        OFFSET 0 8.69014 0
        CHANNELS 3 Zrotation Xrotation Yrotation
        JOINT Neck
        {
          OFFSET 0 22.3112 1.06372
          CHANNELS 3 Zrotation Xrotation Yrotation
          JOINT Head
          {
            OFFSET 0 6.74081 0
            CHANNELS 3 Zrotation Xrotation Yrotation
            End Site
            {
              OFFSET 0 16.3165 -5.38097
            }
          }
        }
        JOINT RightShoulder
        {
          OFFSET -3.65916 9.38468 -0.509514
          CHANNELS 3 Zrotation Xrotation Yrotation
          JOINT RightArm
          {
            OFFSET 0 12.3089 0
            CHANNELS 3 Zrotation Xrotation Yrotation
            JOINT RightArmRoll
            {
              OFFSET 0 6.21375 0
              CHANNELS 3 Zrotation Xrotation Yrotation
              JOINT RightForeArm
              {
                OFFSET 0 18.0985 0
                CHANNELS 3 Zrotation Xrotation Yrotation
                JOINT RightForeArmRoll
                {
                  OFFSET 0 6.97279 0
                  CHANNELS 3 Zrotation Xrotation Yrotation
                  JOINT RightHand
                  {
                    OFFSET 0 13.9929 0
                    CHANNELS 3 Zrotation Xrotation Yrotation
                    End Site
                    {
                      OFFSET 0 0 0
                    }
                  }
                }
              }
            }
          }
        }
        JOINT LeftShoulder
        {
          OFFSET 3.65916 9.38468 -0.509514
          CHANNELS 3 Zrotation Xrotation Yrotation
          JOINT LeftArm
          {
            OFFSET 0 12.3089 0
            CHANNELS 3 Zrotation Xrotation Yrotation
            JOINT LeftArmRoll
            {
              OFFSET 0 6.21375 0
              CHANNELS 3 Zrotation Xrotation Yrotation
              JOINT LeftForeArm
              {
                OFFSET 0 18.0985 0
                CHANNELS 3 Zrotation Xrotation Yrotation
                JOINT LeftForeArmRoll
                {
                  OFFSET 0 6.97279 0
                  CHANNELS 3 Zrotation Xrotation Yrotation
                  JOINT LeftHand
                  {
                    OFFSET 0 13.9929 0
                    CHANNELS 3 Zrotation Xrotation Yrotation
                    End Site
                    {
                      OFFSET 0 0 0
                    }
                  }
                }
              }
            }
          }
        }
      }
    }
  }
  JOINT RightUpLeg
  {
    OFFSET -5.53515 -1.015 -0.851454
    CHANNELS 3 Zrotation Xrotation Yrotation
    JOINT RightUpLegRoll
    {
      OFFSET 0 16.4075 0
      CHANNELS 3 Zrotation Xrotation Yrotation
      JOINT RightLeg
      {
        OFFSET 0 -20.3181 0
        CHANNELS 3 Zrotation Xrotation Yrotation
        JOINT RightLegRoll
        {
          OFFSET 0 20.3846 0
          CHANNELS 3 Zrotation Xrotation Yrotation
          JOINT RightFoot
          {
            OFFSET 0 16.9668 0
            CHANNELS 3 Zrotation Xrotation Yrotation
            JOINT RightToeBase
            {
              OFFSET 0 14.1834 0
              CHANNELS 3 Zrotation Xrotation Yrotation
              End Site
              {
                OFFSET 0.0060118 6.8689 -0.791746
              }
            }
          }
        }
      }
    }
  }
  JOINT LeftUpLeg
  {
    OFFSET 5.53515 -1.015 -0.851454
    CHANNELS 3 Zrotation Xrotation Yrotation
    JOINT LeftUpLegRoll
    {
      OFFSET 0 16.4076 0
      CHANNELS 3 Zrotation Xrotation Yrotation
      JOINT LeftLeg
      {
        OFFSET 0 20.3181 0
        CHANNELS 3 Zrotation Xrotation Yrotation
        JOINT LeftLegRoll
        {
          OFFSET 0 20.5731 0
          CHANNELS 3 Zrotation Xrotation Yrotation
          JOINT LeftFoot
          {
            OFFSET 0 16.7783 0
            CHANNELS 3 Zrotation Xrotation Yrotation
            JOINT LeftToeBase
            {
              OFFSET 0 14.1834 0
              CHANNELS 3 Zrotation Xrotation Yrotation
              End Site
              {
                OFFSET -0.0269423 6.86889 -0.791746
              }
            }
          }
        }
      }
    }
  }
}
MOTION
Frames: 9
Frame Time: 0.00208333
43.3897 93.541 -13.4781 1.3439 5.86373 0.111354 -0.363308 -2.26294 -0.0724533 -0.719766 -0.522814 -0.112132 -0.718553 1.12218 -0.100105 -3.8756 -11.7321 -1.52895 -0.0175753 10.2453 -1.99644 60.1647 -7.00825 -4.37289 116.246 2.55238 8.84977 -2.95472e-005 4.72888e-007 2.7584e-006 9.72478 16.7141 -2.1471 -8.10425e-006 3.04956e-006 -3 8.02894 -4.95142 0.697679 -61.5972 -10.6688 6.63181 -116.051 9.24446 -13.5917 9.34288e-015 7.15625e-015 -9.54166e-015 -1.931 18.4822 0.818218 4.35119e-007 -1.73013e-006 3 -8.02994 -4.95141 -0.69766 177.902 14.1054 -1.94616 -180 7.01579e-015 179.073 -178.183 16.3552 178.693 2.79751e-006 -2.08958e-006 0.0252605 -17.4024 66.4235 18.3205 8.13649 25.2327 -3.48774 -173.637 12.1473 -2.6914 4.54188e-006 -4.6773e-006 -0.984197 -0.00354428 -19.3036 1.06512 3.05901e-007 -6.6868e-007 -0.239626 18.4388 68.0385 -19.5614 -8.13649 25.2327 3.48773 
43.3752 93.471 -13.443 1.34941 5.87771 0.114732 -0.364395 -2.26787 -0.0720255 -0.722969 -0.532686 -0.111201 -0.721765 1.11231 -0.0991195 -3.85807 -11.7148 -1.51029 0.0279108 10.2302 -1.97594 60.1359 -6.94857 -4.33511 116.231 2.54286 8.85703 -2.95472e-005 4.72888e-007 2.7584e-006 9.72314 16.7493 -2.15084 -8.10425e-006 3.04956e-006 -3 8.02894 -4.95142 0.697679 -61.6641 -10.6072 6.59438 -115.896 9.29044 -13.6035 1.19271e-015 5.1684e-015 -3.18055e-015 -1.96603 18.4622 0.822907 4.35119e-007 -1.73013e-006 3 -8.02994 -4.95141 -0.69766 177.907 14.1131 -1.97432 -180 7.01579e-015 179.074 -178.164 16.2361 178.694 2.79751e-006 -2.08958e-006 0.0236206 -17.4068 66.4299 18.3255 8.13649 25.2327 -3.48774 -173.639 12.1498 -2.66831 4.54188e-006 -4.6773e-006 -0.983644 0.00993173 -19.1959 1.06532 3.05901e-007 -6.6868e-007 -0.237804 18.4307 68.0281 -19.5519 -8.13649 25.2327 3.48773 
43.4075 93.4113 -13.4627 1.35488 5.89091 0.117932 -0.365384 -2.27209 -0.071533 -0.726001 -0.541124 -0.110145 -0.724807 1.10387 -0.098012 -3.84244 -11.7002 -1.49155 0.0761289 10.2157 -1.95542 60.104 -6.88873 -4.29714 116.22 2.53593 8.86285 -2.95472e-005 4.72888e-007 2.7584e-006 9.72098 16.7846 -2.15455 -8.10425e-006 3.04956e-006 -3 8.02894 -4.95142 0.697679 -61.7328 -10.545 6.55657 -115.74 9.33927 -13.6141 -8.34896e-015 -5.96354e-015 -1.59028e-014 -2.00142 18.4431 0.827688 4.35119e-007 -1.73013e-006 3 -8.02994 -4.95141 -0.69766 177.912 14.1238 -2.0022 -180 7.0158e-015 179.075 -178.146 16.1233 178.695 2.79751e-006 -2.08958e-006 0.0220432 -17.411 66.4361 18.3304 8.13649 25.2327 -3.48774 -173.642 12.1554 -2.64444 4.54188e-006 -4.6773e-006 -0.983103 0.0253768 -19.0951 1.06619 3.05901e-007 -6.6868e-007 -0.236064 18.4227 68.0178 -19.5426 -8.13649 25.2327 3.48773 
43.3803 93.3481 -13.4439 1.3598 5.90301 0.121137 -0.366214 -2.27555 -0.0709404 -0.728706 -0.548046 -0.108898 -0.727526 1.09695 -0.0967196 -3.82781 -11.6875 -1.47298 0.12608 10.2007 -1.93505 60.0701 -6.82918 -4.2593 116.21 2.53181 8.86709 -2.95472e-005 4.72888e-007 2.7584e-006 9.71867 16.8196 -2.15821 -8.10425e-006 3.04956e-006 -3 8.02894 -4.95142 0.697679 -61.8022 -10.4819 6.51828 -115.583 9.39058 -13.6235 -7.35503e-015 -1.98785e-015 -3.18055e-015 -2.03694 18.4254 0.832532 4.35119e-007 -1.73013e-006 3 -8.02994 -4.95141 -0.69766 177.919 14.1373 -2.03003 -180 7.0158e-015 179.076 -178.128 16.0176 178.695 2.79751e-006 -2.08958e-006 0.0205315 -17.415 66.4419 18.3351 8.13649 25.2327 -3.48774 -173.643 12.1645 -2.62035 4.54188e-006 -4.6773e-006 -0.982577 0.0429258 -19.0035 1.06782 3.05901e-007 -6.6868e-007 -0.234439 18.4148 68.0077 -19.5336 -8.13649 25.2327 3.48773 
43.3876 93.2786 -13.4164 1.36364 5.91372 0.12453 -0.366822 -2.27821 -0.0702121 -0.730932 -0.553373 -0.107395 -0.729769 1.09162 -0.0951795 -3.81325 -11.6756 -1.45484 0.176766 10.1842 -1.91503 60.0354 -6.77037 -4.22187 116.201 2.53073 8.86961 -2.95472e-005 4.72888e-007 2.7584e-006 9.71654 16.8538 -2.16178 -8.10425e-006 3.04956e-006 -3 8.02894 -4.95142 0.697679 -61.8712 -10.4178 6.47946 -115.428 9.44402 -13.6316 1.13307e-014 3.97569e-015 -1.27222e-014 -2.07234 18.4096 0.837411 4.35119e-007 -1.73013e-006 3 -8.02994 -4.95141 -0.69766 177.926 14.1536 -2.05801 -180 7.0158e-015 179.077 -178.111 15.9201 178.696 2.79751e-006 -2.08958e-006 0.0190882 -17.4186 66.4472 18.3393 8.13649 25.2327 -3.48774 -173.643 12.1779 -2.5966 4.54188e-006 -4.6773e-006 -0.982068 0.062714 -18.9232 1.07032 3.05901e-007 -6.6868e-007 -0.232962 18.4073 67.9982 -19.525 -8.13649 25.2327 3.48773 
43.374 93.1866 -13.4013 1.36589 5.92275 0.128296 -0.367144 -2.28004 -0.0693127 -0.732526 -0.557024 -0.105572 -0.731383 1.08797 -0.0933291 -3.79785 -11.6637 -1.43737 0.227192 10.1652 -1.89553 60.0009 -6.71275 -4.18516 116.192 2.53291 8.87027 -2.95472e-005 4.72888e-007 2.7584e-006 9.71495 16.8868 -2.16524 -8.10425e-006 3.04956e-006 -3 8.02894 -4.95142 0.697679 -61.9387 -10.3526 6.44003 -115.274 9.49922 -13.6384 -8.94531e-015 -5.56597e-015 -6.36111e-015 -2.10736 18.3962 0.842295 4.35119e-007 -1.73013e-006 3 -8.02994 -4.95141 -0.69766 177.936 14.1726 -2.08635 -180 7.0158e-015 179.079 -178.094 15.832 178.696 2.79751e-006 -2.08958e-006 0.0177164 -17.4217 66.4518 18.343 8.13649 25.2327 -3.48774 -173.64 12.196 -2.57376 4.54188e-006 -4.6773e-006 -0.981577 0.0848774 -18.8563 1.0738 3.05901e-007 -6.6868e-007 -0.231666 18.4003 67.9893 -19.517 -8.13649 25.2327 3.48773 
43.4328 93.098 -13.4816 1.36605 5.92978 0.132618 -0.36712 -2.28098 -0.0682067 -0.733335 -0.558919 -0.103363 -0.732217 1.08607 -0.0911056 -3.78071 -11.6509 -1.42082 0.276361 10.1425 -1.87674 59.9677 -6.65677 -4.14948 116.181 2.53858 8.86894 -2.95472e-005 4.72888e-007 2.7584e-006 9.71426 16.9182 -2.16855 -8.10425e-006 3.04956e-006 -3 8.02894 -4.95142 0.697679 -62.0037 -10.2861 6.39991 -115.123 9.55582 -13.6437 -8.15017e-015 -7.15625e-015 -6.36111e-015 -2.14177 18.3856 0.847157 4.35119e-007 -1.73013e-006 3 -8.02994 -4.95141 -0.69766 177.949 14.1941 -2.11527 -180 7.0158e-015 179.08 -178.078 15.7541 178.696 2.79751e-006 -2.08958e-006 0.0164189 -17.4243 66.4555 18.3459 8.13649 25.2327 -3.48774 -173.634 12.2195 -2.55239 4.54188e-006 -4.6773e-006 -0.981107 0.109553 -18.8051 1.07835 3.05901e-007 -6.6868e-007 -0.230584 18.3941 67.9813 -19.5099 -8.13649 25.2327 3.48773 
43.4009 93.0049 -13.457 1.36359 5.93452 0.137679 -0.366685 -2.28101 -0.0668585 -0.733204 -0.558977 -0.100702 -0.732118 1.08601 -0.0884464 -3.76091 -11.6362 -1.40543 0.323279 10.1151 -1.85886 59.937 -6.60287 -4.11513 116.168 2.54795 8.86549 -2.95472e-005 4.72888e-007 2.7584e-006 9.71481 16.9477 -2.17169 -8.10425e-006 3.04956e-006 -3 8.02894 -4.95142 0.697679 -62.0649 -10.218 6.35904 -114.977 9.61346 -13.6475 -1.78906e-015 2.38542e-015 -6.36111e-015 -2.17532 18.3785 0.851968 4.35119e-007 -1.73013e-006 3 -8.02994 -4.95141 -0.69766 177.965 14.2181 -2.14498 -180 7.01581e-015 179.081 -178.063 15.6876 178.697 2.79751e-006 -2.08958e-006 0.0151987 -17.4262 66.4581 18.3481 8.13649 25.2327 -3.48774 -173.624 12.2489 -2.53305 4.54188e-006 -4.6773e-006 -0.98066 0.136881 -18.7717 1.08408 3.05901e-007 -6.6868e-007 -0.229749 18.3887 67.9743 -19.5038 -8.13649 25.2327 3.48773 
43.3628 92.9244 -13.3974 1.35801 5.93666 0.143662 -0.365777 -2.28007 -0.0652327 -0.731982 -0.557118 -0.0975238 -0.730934 1.08787 -0.0852886 -3.73754 -11.6186 -1.39146 0.366953 10.0819 -1.84206 59.9099 -6.5515 -4.08241 116.15 2.56127 8.85978 -2.95472e-005 4.72888e-007 2.7584e-006 9.71697 16.9747 -2.17462 -8.10425e-006 3.04956e-006 -3 8.02894 -4.95142 0.697679 -62.1214 -10.1484 6.31733 -114.835 9.67179 -13.6498 -3.37934e-014 -1.78906e-014 -1.27222e-014 -2.20775 18.3752 0.856699 4.35119e-007 -1.73013e-006 3 -8.02994 -4.95141 -0.69766 177.985 14.2445 -2.17569 -180 7.01581e-015 179.082 -178.05 15.6335 178.697 2.79751e-006 -2.08958e-006 0.0140588 -17.4272 66.4595 18.3492 8.13649 25.2327 -3.48774 -173.61 12.2848 -2.51632 4.54188e-006 -4.6773e-006 -0.980238 0.167003 -18.7583 1.09111 3.05901e-007 -6.6868e-007 -0.229194 18.3843 67.9687 -19.4988 -8.13649 25.2327 3.48773 
